<?xml version="1.0" encoding="UTF-8"?>
<svg id="Capa_1" xmlns="http://www.w3.org/2000/svg" viewBox="0 0 932.44 332.17">
  <defs>
    <style>
      .cls-1 {
        letter-spacing: 0em;
      }

      .cls-2 {
        letter-spacing: 0em;
      }

      .cls-3 {
        letter-spacing: -.02em;
      }

      .cls-4 {
        fill: #8b8b8b;
      }

      .cls-5 {
        letter-spacing: 0em;
      }

      .cls-6 {
        letter-spacing: -.01em;
      }

      .cls-7 {
        letter-spacing: 0em;
      }

      .cls-8 {
        letter-spacing: 0em;
      }

      .cls-9 {
        letter-spacing: 0em;
      }

      .cls-10 {
        letter-spacing: 0em;
      }

      .cls-11 {
        letter-spacing: 0em;
      }

      .cls-12 {
        fill: #e0e0e0;
      }

      .cls-13 {
        letter-spacing: 0em;
      }

      .cls-14 {
        font-family: Helvetica-Regular, 'Helvetica';
        font-variation-settings: 'wght' 400, 'wdth' 100, 'slnt' 0;
      }

      .cls-14, .cls-15 {
        font-size: 22.03px;
      }

      .cls-16 {
        letter-spacing: 0em;
      }

      .cls-17 {
        fill: #eed19f;
      }

      .cls-18 {
        fill: #253786;
      }

      .cls-19 {
        letter-spacing: 0em;
      }

      .cls-20 {
        fill: #f2c067;
      }

      .cls-21 {
        letter-spacing: .02em;
      }

      .cls-22 {
        letter-spacing: 0em;
      }

      .cls-23 {
        letter-spacing: 0em;
      }

      .cls-24 {
        letter-spacing: 0em;
      }

      .cls-25 {
        fill: #8895bd;
      }

      .cls-26 {
        letter-spacing: 0em;
      }

      .cls-27 {
        letter-spacing: .01em;
      }

      .cls-28 {
        letter-spacing: 0em;
      }

      .cls-29 {
        letter-spacing: -.01em;
      }

      .cls-30 {
        letter-spacing: 0em;
      }

      .cls-15 {
        font-family: Helvetica-Bold, 'Helvetica';
        font-variation-settings: 'wght' 700, 'wdth' 100, 'slnt' 0;
        font-weight: 700;
      }

      .cls-31 {
        letter-spacing: 0em;
      }

      .cls-32 {
        letter-spacing: 0em;
      }

      .cls-33 {
        letter-spacing: 0em;
      }

      .cls-34 {
        letter-spacing: 0em;
      }

      .cls-35 {
        letter-spacing: 0em;
      }

      .cls-36 {
        letter-spacing: 0em;
      }

      .cls-37 {
        letter-spacing: 0em;
      }

      .cls-38 {
        letter-spacing: -.02em;
      }
    </style>
  </defs>
  <polyline points="793.23 218.62 793.23 228.96 782.9 228.96 782.9 218.62 488.86 218.62 478.53 218.62 183.63 218.62 183.63 228.96 173.3 228.96 173.3 218.62 33.6 218.62 33.6 206.22 932.31 206.22 932.31 218.62 793.23 218.62 782.9 218.62 488.86 218.62 488.86 228.96 478.53 228.96 478.53 218.62 183.63 218.62 173.3 218.62"/>
  <rect class="cls-17" x="643.95" y="115.09" width="288.49" height="78.73"/>
  <rect class="cls-25" x="339.58" y="115.09" width="288.49" height="78.73"/>
  <rect class="cls-18" x="339.58" y="193.82" width="288.49" height="12.4"/>
  <rect class="cls-20" x="643.95" y="193.82" width="288.49" height="12.4"/>
  <text class="cls-14" transform="translate(363.79 150.21)"><tspan class="cls-32" x="0" y="0">S</tspan><tspan class="cls-13" x="13.44" y="0">e</tspan><tspan x="24.98" y="0">mi</tspan><tspan class="cls-7" x="48.84" y="0">n</tspan><tspan x="61.18" y="0">a</tspan><tspan class="cls-35" x="72.83" y="0">r</tspan><tspan x="80.44" y="0">io d</tspan><tspan class="cls-9" x="115.93" y="0">e</tspan><tspan x="127.36" y="0"> </tspan><tspan class="cls-21" x="132.94" y="0">L</tspan><tspan x="145.65" y="0">i</tspan><tspan class="cls-37" x="150.87" y="0">c</tspan><tspan class="cls-22" x="162.13" y="0">e</tspan><tspan x="173.67" y="0">n</tspan><tspan class="cls-10" x="186.14" y="0">c</tspan><tspan class="cls-7" x="197.47" y="0">i</tspan><tspan class="cls-35" x="202.56" y="0">a</tspan><tspan class="cls-29" x="214.06" y="0">t</tspan><tspan x="220.8" y="0">u</tspan><tspan class="cls-3" x="233.07" y="0">r</tspan><tspan x="240.45" y="0">a</tspan><tspan x="106.03" y="28.99">I y </tspan><tspan class="cls-1" x="133.83" y="28.99">I</tspan><tspan x="140.02" y="28.99">I</tspan></text>
  <text class="cls-14" transform="translate(700.67 150.21)"><tspan class="cls-38" x="0" y="0">P</tspan><tspan class="cls-19" x="13.44" y="0">r</tspan><tspan class="cls-1" x="21.02" y="0">o</tspan><tspan class="cls-13" x="33.27" y="0">y</tspan><tspan class="cls-1" x="43.89" y="0">e</tspan><tspan class="cls-28" x="55.54" y="0">c</tspan><tspan class="cls-35" x="66.91" y="0">t</tspan><tspan x="73.78" y="0">o d</tspan><tspan class="cls-8" x="104.05" y="0">e</tspan><tspan x="115.49" y="0" xml:space="preserve"> T</tspan><tspan class="cls-34" x="133.36" y="0">í</tspan><tspan class="cls-29" x="138.69" y="0">t</tspan><tspan x="145.43" y="0">ulo</tspan><tspan x="67.49" y="28.99">I y </tspan><tspan class="cls-1" x="95.3" y="28.99">I</tspan><tspan x="101.49" y="28.99">I</tspan></text>
  <text class="cls-15" transform="translate(116.05 253.13)"><tspan class="cls-19" x="0" y="0">C</tspan><tspan x="15.51" y="0">i</tspan><tspan class="cls-5" x="21.5" y="0">c</tspan><tspan x="33.31" y="0">lo </tspan><tspan class="cls-16" x="57.41" y="0">b</tspan><tspan class="cls-11" x="70.59" y="0">á</tspan><tspan x="82.71" y="0">si</tspan><tspan class="cls-34" x="100.07" y="0">c</tspan><tspan class="cls-30" x="112.05" y="0">o</tspan><tspan x="36.61" y="28.99">I a </tspan><tspan class="cls-32" x="66.48" y="28.99">I</tspan><tspan x="73.46" y="28.99">V</tspan></text>
  <text class="cls-15" transform="translate(384.71 253.13)"><tspan class="cls-19" x="0" y="0">C</tspan><tspan x="15.51" y="0">i</tspan><tspan class="cls-5" x="21.5" y="0">c</tspan><tspan x="33.31" y="0">lo </tspan><tspan class="cls-13" x="57.41" y="0">e</tspan><tspan class="cls-33" x="69.66" y="0">s</tspan><tspan class="cls-1" x="81.01" y="0">p</tspan><tspan class="cls-26" x="94.32" y="0">e</tspan><tspan class="cls-31" x="106.74" y="0">c</tspan><tspan class="cls-8" x="118.66" y="0">i</tspan><tspan x="124.56" y="0">al</tspan><tspan class="cls-22" x="142.87" y="0">i</tspan><tspan x="148.89" y="0">z</tspan><tspan class="cls-16" x="159.68" y="0">a</tspan><tspan x="171.93" y="0">do</tspan><tspan x="62.36" y="28.99">V a </tspan><tspan class="cls-22" x="100.1" y="28.99">VII</tspan><tspan x="128.71" y="28.99">I</tspan></text>
  <text class="cls-15" transform="translate(701.8 251.19)"><tspan class="cls-19" x="0" y="0">C</tspan><tspan x="15.51" y="0">i</tspan><tspan class="cls-5" x="21.5" y="0">c</tspan><tspan x="33.31" y="0">lo p</tspan><tspan class="cls-11" x="70.59" y="0">r</tspan><tspan class="cls-13" x="79.07" y="0">o</tspan><tspan class="cls-6" x="91.87" y="0">f</tspan><tspan class="cls-13" x="98.9" y="0">e</tspan><tspan x="111.15" y="0">sio</tspan><tspan class="cls-7" x="141.29" y="0">n</tspan><tspan x="154.22" y="0">al</tspan><tspan class="cls-27" x="57.74" y="28.99">I</tspan><tspan x="64.88" y="28.99">X a X</tspan></text>
  <text class="cls-14" transform="translate(18.75 274.89) rotate(-90)"><tspan class="cls-32" x="0" y="0">S</tspan><tspan class="cls-13" x="13.44" y="0">e</tspan><tspan class="cls-24" x="24.98" y="0">m</tspan><tspan class="cls-36" x="43.62" y="0">e</tspan><tspan class="cls-23" x="55.32" y="0">s</tspan><tspan class="cls-2" x="65.65" y="0">tr</tspan><tspan class="cls-36" x="80.08" y="0">e</tspan><tspan x="91.78" y="0">s</tspan></text>
  <rect class="cls-12" x="34.35" y="115.09" width="288.49" height="78.73"/>
  <rect class="cls-4" x="34.35" y="193.82" width="288.49" height="12.4"/>
  <text class="cls-14" transform="translate(135.64 150.21)"><tspan class="cls-38" x="0" y="0">P</tspan><tspan class="cls-19" x="13.44" y="0">r</tspan><tspan class="cls-1" x="21.02" y="0">o</tspan><tspan class="cls-13" x="33.27" y="0">y</tspan><tspan class="cls-1" x="43.89" y="0">e</tspan><tspan class="cls-28" x="55.54" y="0">c</tspan><tspan class="cls-35" x="66.91" y="0">t</tspan><tspan x="73.78" y="0">o</tspan><tspan class="cls-1" x="36.82" y="28.99">I</tspan><tspan x="43.01" y="28.99">I</tspan></text>
  <rect class="cls-12" x="34.35" y="13.08" width="288.49" height="78.73"/>
  <rect class="cls-4" x="34.35" y="91.81" width="288.49" height="12.4"/>
  <text class="cls-14" transform="translate(135.64 48.2)"><tspan class="cls-38" x="0" y="0">P</tspan><tspan class="cls-19" x="13.44" y="0">r</tspan><tspan class="cls-1" x="21.02" y="0">o</tspan><tspan class="cls-13" x="33.27" y="0">y</tspan><tspan class="cls-1" x="43.89" y="0">e</tspan><tspan class="cls-28" x="55.54" y="0">c</tspan><tspan class="cls-35" x="66.91" y="0">t</tspan><tspan x="73.78" y="0">o</tspan><tspan x="39.92" y="28.99">I</tspan></text>
</svg>