<?xml version="1.0" encoding="UTF-8"?>
<svg id="1.2" xmlns="http://www.w3.org/2000/svg" viewBox="0 0 804.13 292.05">
  <defs>
    <style>
      .cls-1 {
        letter-spacing: .01em;
      }

      .cls-2 {
        letter-spacing: 0em;
      }

      .cls-3 {
        letter-spacing: 0em;
      }

      .cls-4 {
        letter-spacing: -.01em;
      }

      .cls-5 {
        letter-spacing: 0em;
      }

      .cls-6 {
        fill: #8b8b8b;
      }

      .cls-7 {
        letter-spacing: 0em;
      }

      .cls-8 {
        letter-spacing: 0em;
      }

      .cls-9 {
        letter-spacing: 0em;
      }

      .cls-10 {
        letter-spacing: .02em;
      }

      .cls-11 {
        letter-spacing: 0em;
      }

      .cls-12 {
        letter-spacing: 0em;
      }

      .cls-13 {
        letter-spacing: 0em;
      }

      .cls-14 {
        letter-spacing: 0em;
      }

      .cls-15 {
        letter-spacing: 0em;
      }

      .cls-16 {
        letter-spacing: 0em;
      }

      .cls-17 {
        letter-spacing: 0em;
      }

      .cls-18 {
        letter-spacing: 0em;
      }

      .cls-19 {
        fill: #e0e0e0;
      }

      .cls-20 {
        letter-spacing: -.01em;
      }

      .cls-21 {
        letter-spacing: -.02em;
      }

      .cls-22 {
        letter-spacing: .02em;
      }

      .cls-23 {
        fill: #eed19f;
      }

      .cls-24 {
        letter-spacing: 0em;
      }

      .cls-25 {
        fill: #253786;
      }

      .cls-26 {
        letter-spacing: 0em;
      }

      .cls-27 {
        letter-spacing: -.02em;
      }

      .cls-28 {
        letter-spacing: 0em;
      }

      .cls-29 {
        letter-spacing: .01em;
      }

      .cls-30 {
        fill: #f2c067;
      }

      .cls-31 {
        letter-spacing: 0em;
      }

      .cls-32 {
        letter-spacing: 0em;
      }

      .cls-33 {
        fill: #8895bd;
      }

      .cls-34 {
        letter-spacing: -.01em;
      }

      .cls-35 {
        letter-spacing: 0em;
      }

      .cls-36 {
        font-family: Helvetica-Bold, 'Helvetica';
        font-variation-settings: 'wght' 700, 'wdth' 100, 'slnt' 0;
        font-weight: 700;
      }

      .cls-36, .cls-37 {
        font-size: 19px;
      }

      .cls-38 {
        letter-spacing: -.02em;
      }

      .cls-37 {
        font-family: Helvetica-Regular, 'Helvetica';
        font-variation-settings: 'wght' 400, 'wdth' 100, 'slnt' 0;
      }

      .cls-39 {
        letter-spacing: 0em;
      }

      .cls-40 {
        letter-spacing: 0em;
      }

      .cls-41 {
        letter-spacing: 0em;
      }

      .cls-42 {
        letter-spacing: 0em;
      }

      .cls-43 {
        letter-spacing: 0em;
      }
    </style>
  </defs>
  <polyline points="684.08 207.29 684.08 216.2 675.17 216.2 675.17 207.29 421.59 207.29 412.68 207.29 158.36 207.29 158.36 216.2 149.45 216.2 149.45 207.29 28.98 207.29 28.98 196.59 804.02 196.59 804.02 207.29 684.08 207.29 675.17 207.29 421.59 207.29 421.59 216.2 412.68 216.2 412.68 207.29 158.36 207.29 149.45 207.29"/>
  <rect class="cls-23" x="555.34" width="248.79" height="67.9"/>
  <rect class="cls-33" x="292.85" width="248.79" height="67.9"/>
  <rect class="cls-25" x="292.85" y="67.9" width="248.79" height="10.69"/>
  <rect class="cls-30" x="555.34" y="67.9" width="248.79" height="10.69"/>
  <text class="cls-37" transform="translate(313.73 30.29)"><tspan class="cls-18" x="0" y="0">S</tspan><tspan class="cls-11" x="11.59" y="0">e</tspan><tspan x="21.54" y="0">mi</tspan><tspan class="cls-9" x="42.12" y="0">n</tspan><tspan x="52.76" y="0">a</tspan><tspan class="cls-28" x="62.81" y="0">r</tspan><tspan x="69.37" y="0">io d</tspan><tspan class="cls-13" x="99.98" y="0">e</tspan><tspan x="109.84" y="0"> </tspan><tspan class="cls-22" x="114.64" y="0">L</tspan><tspan x="125.61" y="0">i</tspan><tspan class="cls-26" x="130.11" y="0">c</tspan><tspan class="cls-11" x="139.82" y="0">e</tspan><tspan x="149.77" y="0">n</tspan><tspan class="cls-5" x="160.53" y="0">c</tspan><tspan class="cls-9" x="170.29" y="0">i</tspan><tspan class="cls-28" x="174.68" y="0">a</tspan><tspan class="cls-20" x="184.6" y="0">t</tspan><tspan x="190.41" y="0">u</tspan><tspan class="cls-21" x="201" y="0">r</tspan><tspan x="207.36" y="0">a</tspan><tspan x="91.44" y="25">I y </tspan><tspan class="cls-14" x="115.41" y="25">I</tspan><tspan x="120.75" y="25">I</tspan></text>
  <text class="cls-37" transform="translate(604.26 30.29)"><tspan class="cls-27" x="0" y="0">P</tspan><tspan class="cls-31" x="11.59" y="0">r</tspan><tspan class="cls-14" x="18.13" y="0">o</tspan><tspan class="cls-11" x="28.69" y="0">y</tspan><tspan class="cls-7" x="37.85" y="0">e</tspan><tspan class="cls-29" x="47.9" y="0">c</tspan><tspan class="cls-28" x="57.7" y="0">t</tspan><tspan x="63.63" y="0">o d</tspan><tspan class="cls-41" x="89.74" y="0">e</tspan><tspan x="99.6" y="0" xml:space="preserve"> T</tspan><tspan class="cls-26" x="115" y="0">í</tspan><tspan class="cls-34" x="119.6" y="0">t</tspan><tspan x="125.42" y="0">ulo</tspan><tspan x="58.21" y="25">I y </tspan><tspan class="cls-14" x="82.18" y="25">I</tspan><tspan x="87.52" y="25">I</tspan></text>
  <text class="cls-36" transform="translate(100.08 237.05)"><tspan class="cls-2" x="0" y="0">C</tspan><tspan x="13.38" y="0">i</tspan><tspan class="cls-42" x="18.54" y="0">c</tspan><tspan x="28.73" y="0">lo </tspan><tspan class="cls-42" x="49.51" y="0">b</tspan><tspan class="cls-40" x="60.88" y="0">á</tspan><tspan x="71.33" y="0">si</tspan><tspan class="cls-26" x="86.3" y="0">c</tspan><tspan x="96.63" y="0">o</tspan><tspan x="31.57" y="25">I a </tspan><tspan class="cls-18" x="57.33" y="25">I</tspan><tspan x="63.35" y="25">V</tspan></text>
  <text class="cls-36" transform="translate(331.77 237.05)"><tspan class="cls-2" x="0" y="0">C</tspan><tspan x="13.38" y="0">i</tspan><tspan class="cls-42" x="18.54" y="0">c</tspan><tspan x="28.73" y="0">lo </tspan><tspan class="cls-16" x="49.51" y="0">e</tspan><tspan class="cls-17" x="60.08" y="0">s</tspan><tspan class="cls-14" x="69.86" y="0">p</tspan><tspan class="cls-3" x="81.34" y="0">e</tspan><tspan class="cls-24" x="92.05" y="0">c</tspan><tspan class="cls-41" x="102.33" y="0">i</tspan><tspan x="107.42" y="0">al</tspan><tspan class="cls-11" x="123.21" y="0">i</tspan><tspan x="128.4" y="0">z</tspan><tspan class="cls-42" x="137.71" y="0">a</tspan><tspan x="148.27" y="0">do</tspan><tspan x="53.78" y="25">V a </tspan><tspan class="cls-11" x="86.32" y="25">VII</tspan><tspan x="111" y="25">I</tspan></text>
  <text class="cls-36" transform="translate(605.23 235.37)"><tspan class="cls-2" x="0" y="0">C</tspan><tspan x="13.38" y="0">i</tspan><tspan class="cls-42" x="18.54" y="0">c</tspan><tspan x="28.73" y="0">lo p</tspan><tspan class="cls-40" x="60.88" y="0">r</tspan><tspan class="cls-16" x="68.19" y="0">o</tspan><tspan class="cls-4" x="79.23" y="0">f</tspan><tspan class="cls-16" x="85.29" y="0">e</tspan><tspan x="95.85" y="0">sio</tspan><tspan class="cls-9" x="121.85" y="0">n</tspan><tspan x="133" y="0">al</tspan><tspan class="cls-1" x="49.8" y="25">I</tspan><tspan x="55.95" y="25">X a X</tspan></text>
  <text class="cls-37" transform="translate(16.17 255.81) rotate(-90)"><tspan class="cls-18" x="0" y="0">S</tspan><tspan class="cls-16" x="11.59" y="0">e</tspan><tspan class="cls-35" x="21.55" y="0">m</tspan><tspan class="cls-5" x="37.62" y="0">e</tspan><tspan class="cls-41" x="47.71" y="0">s</tspan><tspan class="cls-31" x="56.62" y="0">tr</tspan><tspan class="cls-5" x="69.06" y="0">e</tspan><tspan x="79.15" y="0">s</tspan></text>
  <rect class="cls-19" x="29.62" width="248.79" height="67.9"/>
  <rect class="cls-6" x="29.62" y="67.9" width="248.79" height="10.69"/>
  <text class="cls-37" transform="translate(116.98 30.29)"><tspan class="cls-27" x="0" y="0">P</tspan><tspan class="cls-31" x="11.59" y="0">r</tspan><tspan class="cls-7" x="18.13" y="0">o</tspan><tspan class="cls-16" x="28.69" y="0">y</tspan><tspan class="cls-7" x="37.85" y="0">e</tspan><tspan class="cls-29" x="47.9" y="0">c</tspan><tspan class="cls-28" x="57.7" y="0">t</tspan><tspan x="63.63" y="0">o</tspan><tspan x="19.77" y="25">I y </tspan><tspan class="cls-14" x="43.75" y="25">I</tspan><tspan x="49.08" y="25">I</tspan></text>
  <rect class="cls-33" x="292.85" y="92.21" width="248.79" height="94.66"/>
  <rect class="cls-25" x="292.85" y="185.9" width="248.79" height="10.69"/>
  <text class="cls-37" transform="translate(308.02 122.5)"><tspan class="cls-39" x="0" y="0">E</tspan><tspan x="11.15" y="0">l</tspan><tspan class="cls-7" x="15.66" y="0">e</tspan><tspan class="cls-29" x="25.71" y="0">c</tspan><tspan class="cls-41" x="35.51" y="0">t</tspan><tspan class="cls-18" x="41.5" y="0">i</tspan><tspan class="cls-41" x="46.07" y="0">v</tspan><tspan x="55.19" y="0">o V y M: </tspan><tspan class="cls-4" x="127.43" y="0">E</tspan><tspan x="138.58" y="0">l d</tspan><tspan class="cls-15" x="158.74" y="0">i</tspan><tspan class="cls-16" x="163.15" y="0">s</tspan><tspan class="cls-15" x="172.16" y="0">c</tspan><tspan x="181.68" y="0">u</tspan><tspan class="cls-43" x="192.26" y="0">r</tspan><tspan class="cls-11" x="199" y="0">s</tspan><tspan x="208.01" y="0">o </tspan><tspan x="-1.42" y="25">d</tspan><tspan class="cls-43" x="9.43" y="25">e</tspan><tspan x="19.43" y="25">l </tspan><tspan class="cls-15" x="28.74" y="25">a</tspan><tspan class="cls-12" x="38.69" y="25">f</tspan><tspan x="44.2" y="25">i</tspan><tspan class="cls-32" x="48.71" y="25">c</tspan><tspan x="58.3" y="25">h</tspan><tspan class="cls-41" x="69.05" y="25">e</tspan><tspan x="78.92" y="25"> </tspan><tspan class="cls-14" x="83.72" y="25">p</tspan><tspan x="94.67" y="25">ol</tspan><tspan class="cls-26" x="109.62" y="25">í</tspan><tspan class="cls-41" x="114.22" y="25">t</tspan><tspan x="120.2" y="25">i</tspan><tspan class="cls-26" x="124.7" y="25">c</tspan><tspan class="cls-10" x="134.41" y="25">o</tspan><tspan x="145.15" y="25">: </tspan><tspan class="cls-8" x="154.71" y="25">e</tspan><tspan class="cls-13" x="164.79" y="25">s</tspan><tspan class="cls-28" x="173.71" y="25">t</tspan><tspan class="cls-26" x="179.63" y="25">é</tspan><tspan class="cls-41" x="189.66" y="25">t</tspan><tspan x="195.65" y="25">i</tspan><tspan class="cls-43" x="200.15" y="25">c</tspan><tspan x="209.82" y="25">a </tspan><tspan x="77.54" y="50">y p</tspan><tspan class="cls-38" x="102.31" y="50">r</tspan><tspan class="cls-24" x="108.68" y="50">a</tspan><tspan class="cls-5" x="118.77" y="50">x</tspan><tspan class="cls-15" x="127.53" y="50">i</tspan><tspan x="131.93" y="50">s</tspan></text>
</svg>
