<?xml version="1.0" encoding="UTF-8"?>
<svg xmlns="http://www.w3.org/2000/svg" version="1.1" viewBox="0 0 932.4 295.1">
  <defs>
    <style>
      .cls-1 {
        fill: #aa844d;
      }

      .cls-2 {
        fill: #ffedd9;
      }

      .cls-3, .cls-4, .cls-5, .cls-6, .cls-7, .cls-8, .cls-9, .cls-10 {
        isolation: isolate;
      }

      .cls-4 {
        letter-spacing: 0em;
      }

      .cls-4, .cls-5, .cls-6, .cls-7, .cls-8, .cls-9, .cls-10 {
        font-size: 22px;
      }

      .cls-4, .cls-5, .cls-8 {
        font-family: HelveticaNeueLTPro-Bd, 'Helvetica Neue LT Pro';
      }

      .cls-11 {
        fill: #cc9452;
      }

      .cls-12 {
        fill: #8996be;
      }

      .cls-13 {
        fill: #efd1a0;
      }

      .cls-6 {
        letter-spacing: 0em;
      }

      .cls-6, .cls-7, .cls-9, .cls-10 {
        font-family: HelveticaNeueLTPro-Roman, 'Helvetica Neue LT Pro';
      }

      .cls-7, .cls-8 {
        letter-spacing: 0em;
      }

      .cls-14 {
        fill: #f2c166;
      }

      .cls-9 {
        letter-spacing: 0em;
      }

      .cls-15 {
        fill: #1d3191;
      }

      .cls-16 {
        fill: #2c61f4;
      }
    </style>
  </defs>
  <!-- Generator: Adobe Illustrator 28.7.1, SVG Export Plug-In . SVG Version: 1.2.0 Build 142)  -->
  <g>
    <g id="Capa_1">
      <polyline points="793.3 116.6 793.3 127 783 127 783 116.6 488.9 116.6 478.6 116.6 183.7 116.6 183.7 127 173.3 127 173.3 116.6 33.6 116.6 33.6 104.2 932.4 104.2 932.4 116.6 793.3 116.6 783 116.6 488.9 116.6 488.9 127 478.6 127 478.6 116.6 183.7 116.6 173.3 116.6"/>
      <rect class="cls-13" x="643.9" y="13.1" width="288.5" height="78.8"/>
      <rect class="cls-12" x="339.5" y="13.1" width="288.5" height="78.8"/>
      <rect class="cls-15" x="339.5" y="91.8" width="288.5" height="12.4"/>
      <rect class="cls-14" x="643.9" y="91.8" width="288.5" height="12.4"/>
      <g class="cls-3">
        <text class="cls-10" transform="translate(357.7 48.2)"><tspan x="0" y="0">S</tspan></text>
        <text class="cls-10" transform="translate(371.1 48.2)"><tspan x="0" y="0">e</tspan></text>
        <text class="cls-10" transform="translate(382.7 48.2)"><tspan x="0" y="0">mi</tspan></text>
        <text class="cls-10" transform="translate(406.5 48.2)"><tspan x="0" y="0">n</tspan></text>
        <text class="cls-10" transform="translate(418.9 48.2)"><tspan x="0" y="0">a</tspan></text>
        <text class="cls-10" transform="translate(430.5 48.2)"><tspan x="0" y="0">r</tspan></text>
        <text class="cls-10" transform="translate(438.1 48.2)"><tspan x="0" y="0">io d</tspan></text>
        <text class="cls-10" transform="translate(473.6 48.2)"><tspan x="0" y="0">e</tspan></text>
        <text class="cls-10" transform="translate(485.1 48.2)"><tspan x="0" y="0"> </tspan></text>
        <text class="cls-9" transform="translate(490.7 48.2)"><tspan x="0" y="0">L</tspan></text>
        <text class="cls-10" transform="translate(503.4 48.2)"><tspan x="0" y="0">i</tspan></text>
        <text class="cls-10" transform="translate(508.6 48.2)"><tspan x="0" y="0">c</tspan></text>
        <text class="cls-10" transform="translate(519.8 48.2)"><tspan x="0" y="0">e</tspan></text>
        <text class="cls-10" transform="translate(531.4 48.2)"><tspan x="0" y="0">n</tspan></text>
        <text class="cls-10" transform="translate(543.9 48.2)"><tspan x="0" y="0">c</tspan></text>
        <text class="cls-10" transform="translate(555.2 48.2)"><tspan x="0" y="0">i</tspan></text>
        <text class="cls-10" transform="translate(560.3 48.2)"><tspan x="0" y="0">a</tspan></text>
        <text class="cls-7" transform="translate(571.8 48.2)"><tspan x="0" y="0">t</tspan></text>
        <text class="cls-10" transform="translate(578.5 48.2)"><tspan x="0" y="0">u</tspan></text>
        <text class="cls-6" transform="translate(590.8 48.2)"><tspan x="0" y="0">r</tspan></text>
        <text class="cls-10" transform="translate(598.2 48.2)"><tspan x="0" y="0">a</tspan></text>
        <text class="cls-10" transform="translate(463.7 77.2)"><tspan x="0" y="0">I y </tspan></text>
        <text class="cls-10" transform="translate(491.5 77.2)"><tspan x="0" y="0">I</tspan></text>
        <text class="cls-10" transform="translate(497.7 77.2)"><tspan x="0" y="0">I</tspan></text>
      </g>
      <g class="cls-3">
        <text class="cls-6" transform="translate(700.6 48.2)"><tspan x="0" y="0">P</tspan></text>
        <text class="cls-10" transform="translate(714.1 48.2)"><tspan x="0" y="0">r</tspan></text>
        <text class="cls-10" transform="translate(721.7 48.2)"><tspan x="0" y="0">o</tspan></text>
        <text class="cls-10" transform="translate(733.9 48.2)"><tspan x="0" y="0">y</tspan></text>
        <text class="cls-10" transform="translate(744.5 48.2)"><tspan x="0" y="0">e</tspan></text>
        <text class="cls-10" transform="translate(756.2 48.2)"><tspan x="0" y="0">c</tspan></text>
        <text class="cls-10" transform="translate(767.6 48.2)"><tspan x="0" y="0">t</tspan></text>
        <text class="cls-10" transform="translate(774.4 48.2)"><tspan x="0" y="0">o d</tspan></text>
        <text class="cls-10" transform="translate(804.7 48.2)"><tspan x="0" y="0">e</tspan></text>
        <text class="cls-10" transform="translate(816.1 48.2)"><tspan x="0" y="0" xml:space="preserve"> T</tspan></text>
        <text class="cls-10" transform="translate(834 48.2)"><tspan x="0" y="0">í</tspan></text>
        <text class="cls-7" transform="translate(839.4 48.2)"><tspan x="0" y="0">t</tspan></text>
        <text class="cls-10" transform="translate(846.1 48.2)"><tspan x="0" y="0">ulo</tspan></text>
        <text class="cls-10" transform="translate(768.1 77.2)"><tspan x="0" y="0">I y </tspan></text>
        <text class="cls-10" transform="translate(795.9 77.2)"><tspan x="0" y="0">I</tspan></text>
        <text class="cls-10" transform="translate(802.1 77.2)"><tspan x="0" y="0">I</tspan></text>
      </g>
      <g class="cls-3">
        <text class="cls-5" transform="translate(116.1 151.1)"><tspan x="0" y="0">C</tspan></text>
        <text class="cls-5" transform="translate(131.6 151.1)"><tspan x="0" y="0">i</tspan></text>
        <text class="cls-5" transform="translate(137.6 151.1)"><tspan x="0" y="0">c</tspan></text>
        <text class="cls-5" transform="translate(149.4 151.1)"><tspan x="0" y="0">lo </tspan></text>
        <text class="cls-5" transform="translate(173.5 151.1)"><tspan x="0" y="0">b</tspan></text>
        <text class="cls-5" transform="translate(186.7 151.1)"><tspan x="0" y="0">á</tspan></text>
        <text class="cls-5" transform="translate(198.8 151.1)"><tspan x="0" y="0">si</tspan></text>
        <text class="cls-5" transform="translate(216.2 151.1)"><tspan x="0" y="0">c</tspan></text>
        <text class="cls-5" transform="translate(228.1 151.1)"><tspan x="0" y="0">o</tspan></text>
        <text class="cls-5" transform="translate(152.7 180.1)"><tspan x="0" y="0">I a </tspan></text>
        <text class="cls-5" transform="translate(182.6 180.1)"><tspan x="0" y="0">I</tspan></text>
        <text class="cls-5" transform="translate(189.5 180.1)"><tspan x="0" y="0">V</tspan></text>
      </g>
      <g class="cls-3">
        <text class="cls-5" transform="translate(384.8 151.1)"><tspan x="0" y="0">C</tspan></text>
        <text class="cls-5" transform="translate(400.3 151.1)"><tspan x="0" y="0">i</tspan></text>
        <text class="cls-5" transform="translate(406.3 151.1)"><tspan x="0" y="0">c</tspan></text>
        <text class="cls-5" transform="translate(418.1 151.1)"><tspan x="0" y="0">lo </tspan></text>
        <text class="cls-5" transform="translate(442.2 151.1)"><tspan x="0" y="0">e</tspan></text>
        <text class="cls-5" transform="translate(454.4 151.1)"><tspan x="0" y="0">s</tspan></text>
        <text class="cls-5" transform="translate(465.8 151.1)"><tspan x="0" y="0">p</tspan></text>
        <text class="cls-5" transform="translate(479.1 151.1)"><tspan x="0" y="0">e</tspan></text>
        <text class="cls-5" transform="translate(491.5 151.1)"><tspan x="0" y="0">c</tspan></text>
        <text class="cls-5" transform="translate(503.4 151.1)"><tspan x="0" y="0">i</tspan></text>
        <text class="cls-5" transform="translate(509.3 151.1)"><tspan x="0" y="0">al</tspan></text>
        <text class="cls-5" transform="translate(527.7 151.1)"><tspan x="0" y="0">i</tspan></text>
        <text class="cls-5" transform="translate(533.7 151.1)"><tspan x="0" y="0">z</tspan></text>
        <text class="cls-5" transform="translate(544.5 151.1)"><tspan x="0" y="0">a</tspan></text>
        <text class="cls-5" transform="translate(556.7 151.1)"><tspan x="0" y="0">do</tspan></text>
        <text class="cls-5" transform="translate(447.1 180.1)"><tspan x="0" y="0">V a </tspan></text>
        <text class="cls-5" transform="translate(484.9 180.1)"><tspan x="0" y="0">VII</tspan></text>
        <text class="cls-5" transform="translate(513.5 180.1)"><tspan x="0" y="0">I</tspan></text>
      </g>
      <g class="cls-3">
        <text class="cls-5" transform="translate(701.5 149.2)"><tspan x="0" y="0">C</tspan></text>
        <text class="cls-5" transform="translate(717 149.2)"><tspan x="0" y="0">i</tspan></text>
        <text class="cls-5" transform="translate(723 149.2)"><tspan x="0" y="0">c</tspan></text>
        <text class="cls-5" transform="translate(734.9 149.2)"><tspan x="0" y="0">lo p</tspan></text>
        <text class="cls-5" transform="translate(772.1 149.2)"><tspan x="0" y="0">r</tspan></text>
        <text class="cls-5" transform="translate(780.6 149.2)"><tspan x="0" y="0">o</tspan></text>
        <text class="cls-8" transform="translate(793.4 149.2)"><tspan x="0" y="0">f</tspan></text>
        <text class="cls-5" transform="translate(800.4 149.2)"><tspan x="0" y="0">e</tspan></text>
        <text class="cls-5" transform="translate(812.9 149.2)"><tspan x="0" y="0">c</tspan></text>
        <text class="cls-5" transform="translate(824.8 149.2)"><tspan x="0" y="0">io</tspan></text>
        <text class="cls-5" transform="translate(843.6 149.2)"><tspan x="0" y="0">n</tspan></text>
        <text class="cls-5" transform="translate(856.5 149.2)"><tspan x="0" y="0">al</tspan></text>
        <text class="cls-4" transform="translate(759.6 178.2)"><tspan x="0" y="0">I</tspan></text>
        <text class="cls-5" transform="translate(766.8 178.2)"><tspan x="0" y="0">X a X</tspan></text>
      </g>
      <g class="cls-3">
        <text class="cls-10" transform="translate(18.8 172.9) rotate(-90)"><tspan x="0" y="0">S</tspan></text>
        <text class="cls-10" transform="translate(18.8 159.5) rotate(-90)"><tspan x="0" y="0">e</tspan></text>
        <text class="cls-10" transform="translate(18.8 147.9) rotate(-90)"><tspan x="0" y="0">m</tspan></text>
        <text class="cls-10" transform="translate(18.8 129.3) rotate(-90)"><tspan x="0" y="0">e</tspan></text>
        <text class="cls-10" transform="translate(18.8 117.6) rotate(-90)"><tspan x="0" y="0">s</tspan></text>
        <text class="cls-10" transform="translate(18.8 107.2) rotate(-90)"><tspan x="0" y="0">tr</tspan></text>
        <text class="cls-10" transform="translate(18.8 92.8) rotate(-90)"><tspan x="0" y="0">e</tspan></text>
        <text class="cls-10" transform="translate(18.8 81.1) rotate(-90)"><tspan x="0" y="0">s</tspan></text>
      </g>
      <rect class="cls-14" x="-367.7" y="101" width="98.7" height="76.5"/>
      <rect class="cls-13" x="-367.7" y="201.1" width="98.7" height="125.9"/>
      <rect class="cls-2" x="-367.7" y="350.5" width="98.7" height="125.9"/>
      <rect class="cls-11" x="-367.7" y="1" width="98.7" height="76.5"/>
      <rect class="cls-1" x="-367.7" y="-99.1" width="98.7" height="76.5"/>
      <rect class="cls-15" x="-254.9" y="85.6" width="144.3" height="58.6"/>
      <rect class="cls-16" x="-254.9" y="154.5" width="144.3" height="58.6"/>
    </g>
  </g>
</svg>